<svg width="953" height="510" viewBox="0 0 953 510" fill="none" xmlns="http://www.w3.org/2000/svg">
<path d="M368.888 175.543L369.775 176.625V175.226V25.8894V25.5561L369.467 25.4279C349.02 16.9092 329.418 10.73 310.662 6.89339C292.33 2.63099 273.571 0.5 254.389 0.5C220.709 0.5 188.519 6.89427 157.822 19.6831C127.128 32.0449 100.055 49.5233 76.6059 72.1172C53.5798 94.2882 35.0347 120.933 20.9687 152.045L20.9674 152.048C7.31994 182.752 0.5 216.646 0.5 253.724C0.5 290.804 7.53355 325.123 21.6059 356.676L21.6069 356.678C35.6722 387.789 54.2155 414.857 77.2374 437.876L77.2441 437.883C100.691 460.475 127.55 478.166 157.817 490.953L157.825 490.956C188.521 503.319 220.497 509.5 253.75 509.5C269.953 509.5 286.367 507.795 302.991 504.385C319.615 501.401 337.51 496.501 356.675 489.688C356.676 489.688 356.677 489.687 356.677 489.687L369.44 485.221L369.775 485.104V484.749V336.688V335.424L368.91 336.346C337.075 370.301 301.246 387.244 261.409 387.244C243.176 387.244 226.224 383.852 210.547 377.074C194.862 370.292 181.087 360.968 169.219 349.102C157.778 337.238 148.665 323.253 141.88 307.143C135.524 291.041 132.343 273.449 132.343 254.362C132.343 235.702 135.523 218.322 141.88 202.219C148.665 186.109 157.777 172.338 169.216 160.901L169.222 160.895C180.662 149.032 194.222 139.709 209.906 132.927C226.01 126.148 243.388 122.756 262.048 122.756C304.436 122.756 340.041 140.336 368.888 175.543ZM703.717 225.781H703.217V226.281V323.286V323.786H703.717H805.894C803.752 337.526 799.757 349.181 793.923 358.765C788.003 368.49 780.394 376.52 771.094 382.861C762.212 388.782 752.055 393.227 740.619 396.192C729.171 398.735 717.296 400.008 704.994 400.008C684.201 400.008 665.976 396.613 650.308 389.84C634.631 382.637 621.503 372.684 610.916 359.981C600.325 347.273 592.27 332.23 586.756 314.844C581.666 297.452 579.119 278.569 579.119 258.191C579.119 235.688 582.091 215.322 588.028 197.086C594.394 178.84 602.876 163.367 613.469 150.657C624.484 137.525 637.614 127.574 652.86 120.799L652.87 120.794C668.115 113.596 685.061 109.992 703.717 109.992C726.18 109.992 746.081 115.712 763.439 127.141L763.443 127.144C781.205 138.561 795.617 157.399 806.654 183.716L806.847 184.175L807.307 183.985L926.023 134.844L926.513 134.641L926.281 134.163C904.118 88.5635 874.056 54.8699 836.086 33.1139C798.129 11.3659 754.001 0.5 703.717 0.5C664.943 0.5 629.776 6.67781 598.222 19.042C566.677 31.4032 539.599 48.6698 516.996 70.8441L516.993 70.8474C494.814 93.0239 477.544 119.888 465.182 151.431L465.18 151.434C453.242 182.557 447.276 216.868 447.276 254.362C447.276 292.283 453.455 327.021 465.82 358.569L465.821 358.572C478.183 389.688 495.452 416.55 517.627 439.149L517.631 439.153C539.807 461.327 566.246 478.594 596.942 490.956L596.944 490.957C628.071 503.322 662.388 509.5 699.888 509.5C727.162 509.5 753.163 506.091 777.888 499.271C802.611 492.452 825.208 482.647 845.676 469.856L845.678 469.855C866.575 456.636 884.7 440.431 900.053 421.242L900.057 421.238C915.41 401.621 927.562 379.237 936.514 354.088C942.912 336.177 947.175 316.779 949.306 295.895C951.436 275.027 952.5 251.822 952.5 226.281V225.781H952H703.717Z" stroke="url(#paint0_linear)"/>
<defs>
<linearGradient id="paint0_linear" x1="1" y1="245" x2="952" y2="245" gradientUnits="userSpaceOnUse">
<stop stop-color="#F448CF"/>
<stop offset="1" stop-color="#00A8F0"/>
</linearGradient>
</defs>
</svg>
