<svg width="252" height="230" viewBox="0 0 252 230" fill="none" xmlns="http://www.w3.org/2000/svg">
<rect x="233" y="16.9707" width="24" height="2" transform="rotate(-45 233 16.9707)" fill="white"/>
<rect x="234.414" width="24" height="2" transform="rotate(45 234.414 0)" fill="white"/>
<path d="M221.559 0.140571C221.372 -0.046857 221.11 -0.046857 220.922 0.140571L220.323 0.777826C220.135 0.965254 220.135 1.22765 220.323 1.41508L227.628 8.72477H225.231H217.738H205.45C205.225 8.72477 205 8.9122 205 9.1746V10.0368C205 10.2617 205.187 10.4866 205.45 10.4866H217.738H225.268H227.666L220.323 17.7963C220.135 17.9837 220.135 18.2461 220.323 18.4335L220.922 19.0333C221.11 19.2207 221.372 19.2207 221.559 19.0333L231 9.58694L221.559 0.140571Z" fill="#FFCD41"/>
<path d="M174 132C160.8 132 150 142.8 150 156C150 169.2 160.8 180 174 180C187.2 180 198 169.2 198 156C198 142.667 187.2 132 174 132ZM184.533 150.667C184.533 150.933 184.533 151.067 184.533 151.333C184.533 158.533 179.067 166.667 169.2 166.667C166.133 166.667 163.333 165.733 160.933 164.267C161.333 164.267 161.733 164.4 162.267 164.4C164.8 164.4 167.067 163.6 168.933 162.133C166.533 162.133 164.533 160.533 163.867 158.4C164.133 158.4 164.533 158.533 164.933 158.533C165.467 158.533 165.6 158.533 166 158.4C163.467 157.867 161.333 155.733 161.333 153.067C161.333 153.067 161.333 153.067 161.333 152.933C162.667 153.333 163.2 153.6 164.133 153.6C162.667 152.667 161.867 150.933 161.867 149.067C161.867 148.133 162.267 147.2 162.667 146.4C165.333 149.733 169.333 151.867 173.867 152C173.733 151.6 173.733 151.2 173.733 150.8C173.733 147.867 176.133 145.333 179.2 145.333C180.8 145.333 182.133 146 183.2 147.067C184.4 146.8 185.6 146.4 186.667 145.733C186.267 146.933 185.467 148 184.267 148.667C185.333 148.533 186.4 148.267 187.333 147.867C186.533 148.933 185.6 149.867 184.533 150.667Z" fill="#00A8F0"/>
<path d="M224 132C210.8 132 200 142.8 200 156C200 169.2 210.8 180 224 180C237.2 180 248 169.2 248 156C248 142.8 237.2 132 224 132ZM218 166H214V151.333H218V166ZM216.267 148.533C214.8 148.533 213.467 147.333 213.467 145.733C213.467 144.267 214.667 142.933 216.267 142.933C217.733 142.933 219.067 144.133 219.067 145.733C218.933 147.333 217.733 148.533 216.267 148.533ZM236.667 166H231.333V158.533C231.333 156.8 231.333 154.533 228.8 154.533C226.267 154.533 226 156.533 226 158.533V166.133H222V151.467H226V152.8H226.267C226.933 151.467 228.533 150.4 230.933 150.4C235.733 150.4 236.8 153.6 236.8 157.733V166H236.667Z" fill="#00A8F0"/>
<path d="M24 132C10.8 132 0 142.8 0 156C0 169.2 10.8 180 24 180C37.2 180 48 169.2 48 156C48 142.8 37.2 132 24 132ZM37.8667 164.8H33.7333C33.7333 164.8 32.8 164.933 31.6 164.133C30 163.067 28.5333 160.267 27.4667 160.667C26.2667 161.067 26.4 163.067 26.4 163.467C26.4 164 26 164.533 25.3333 164.533C24.8 164.533 23.4667 164.533 23.4667 164.533C23.4667 164.533 19.3333 164.8 15.7333 161.067C11.7333 156.933 8.26667 148.8 8.26667 148.8C8.26667 148.8 8 148.267 8.26667 148C8.53333 147.733 9.2 147.733 9.2 147.733H13.6C13.6 147.733 14 147.867 14.2667 148C14.5333 148.133 14.6667 148.533 14.6667 148.533C14.6667 148.533 15.3333 150.4 16.4 152C18.2667 155.2 19.0667 155.867 19.7333 155.6C20.6667 155.067 20.4 151.067 20.4 151.067C20.4 151.067 20.4 149.6 20 148.933C19.6 148.4 18.9333 148.267 18.6667 148.267C18.4 148.267 18.8 147.6 19.3333 147.333C20.1333 146.933 21.6 146.933 23.2 146.933C24.5333 146.933 24.9333 147.067 25.3333 147.2C26.8 147.6 26.4 149.067 26.4 152.4C26.4 153.467 26.2667 155.067 26.9333 155.6C27.3333 155.867 28.1333 155.6 30.1333 152.133C31.0667 150.4 31.8667 148.533 31.8667 148.533C31.8667 148.533 32 148.133 32.2667 148C32.5333 147.867 32.9333 147.867 32.9333 147.867H37.6C37.6 147.867 39.0667 147.733 39.2 148.4C39.4667 149.067 38.6667 150.667 36.8 153.2C33.6 157.333 33.3333 156.933 35.8667 159.467C38.4 161.733 38.9333 162.933 38.9333 163.067C40 164.667 37.8667 164.8 37.8667 164.8Z" fill="#00A8F0"/>
<path d="M74 132C60.8 132 50 142.8 50 156C50 169.2 60.8 180 74 180C87.2 180 98 169.2 98 156C98 142.8 87.2 132 74 132ZM81.3333 147.333H78.4C76.5333 147.333 76 148.267 76 149.6V152.667H80.6667L80.1333 156.667H76V168.667H72V156.667H66.6667V152.667H72V149.067C72 145.067 74.2667 142.933 77.8667 142.933C79.6 142.933 80 143.067 81.3333 143.067V147.333Z" fill="#00A8F0"/>
<path d="M131.067 147.732C130.401 147.732 129.867 148.266 129.867 148.932C129.867 149.599 130.401 150.132 131.067 150.132C131.734 150.132 132.267 149.599 132.267 148.932C132.267 148.266 131.734 147.732 131.067 147.732Z" fill="#00A8F0"/>
<path d="M124 150C120.667 150 118 152.667 118 156C118 159.333 120.667 162 124 162C127.333 162 130 159.333 130 156C130 152.667 127.333 150 124 150ZM124 159.867C121.867 159.867 120.133 158.133 120.133 156C120.133 153.867 121.867 152.133 124 152.133C126.133 152.133 127.867 153.867 127.867 156C127.867 158.133 126 159.867 124 159.867Z" fill="#00A8F0"/>
<path d="M124 132C110.8 132 100 142.8 100 156C100 169.2 110.8 180 124 180C137.2 180 148 169.2 148 156C148 142.8 137.2 132 124 132ZM136 161.2C136 165.067 132.933 168.133 129.067 168.133H118.8C114.933 168.133 111.867 165.067 111.867 161.2V150.933C111.867 147.067 114.933 144 118.8 144H129.067C132.933 144 136 147.067 136 150.933V161.2Z" fill="#00A8F0"/>
<path d="M174 182C160.8 182 150 192.8 150 206C150 219.2 160.8 230 174 230C187.2 230 198 219.2 198 206C198 192.667 187.2 182 174 182ZM184.533 200.667C184.533 200.933 184.533 201.067 184.533 201.333C184.533 208.533 179.067 216.667 169.2 216.667C166.133 216.667 163.333 215.733 160.933 214.267C161.333 214.267 161.733 214.4 162.267 214.4C164.8 214.4 167.067 213.6 168.933 212.133C166.533 212.133 164.533 210.533 163.867 208.4C164.133 208.4 164.533 208.533 164.933 208.533C165.467 208.533 165.6 208.533 166 208.4C163.467 207.867 161.333 205.733 161.333 203.067C161.333 203.067 161.333 203.067 161.333 202.933C162.667 203.333 163.2 203.6 164.133 203.6C162.667 202.667 161.867 200.933 161.867 199.067C161.867 198.133 162.267 197.2 162.667 196.4C165.333 199.733 169.333 201.867 173.867 202C173.733 201.6 173.733 201.2 173.733 200.8C173.733 197.867 176.133 195.333 179.2 195.333C180.8 195.333 182.133 196 183.2 197.067C184.4 196.8 185.6 196.4 186.667 195.733C186.267 196.933 185.467 198 184.267 198.667C185.333 198.533 186.4 198.267 187.333 197.867C186.533 198.933 185.6 199.867 184.533 200.667Z" fill="#FFCD41"/>
<path d="M224 182C210.8 182 200 192.8 200 206C200 219.2 210.8 230 224 230C237.2 230 248 219.2 248 206C248 192.8 237.2 182 224 182ZM218 216H214V201.333H218V216ZM216.267 198.533C214.8 198.533 213.467 197.333 213.467 195.733C213.467 194.267 214.667 192.933 216.267 192.933C217.733 192.933 219.067 194.133 219.067 195.733C218.933 197.333 217.733 198.533 216.267 198.533ZM236.667 216H231.333V208.533C231.333 206.8 231.333 204.533 228.8 204.533C226.267 204.533 226 206.533 226 208.533V216.133H222V201.467H226V202.8H226.267C226.933 201.467 228.533 200.4 230.933 200.4C235.733 200.4 236.8 203.6 236.8 207.733V216H236.667Z" fill="#FFCD41"/>
<path d="M24 182C10.8 182 0 192.8 0 206C0 219.2 10.8 230 24 230C37.2 230 48 219.2 48 206C48 192.8 37.2 182 24 182ZM37.8667 214.8H33.7333C33.7333 214.8 32.8 214.933 31.6 214.133C30 213.067 28.5333 210.267 27.4667 210.667C26.2667 211.067 26.4 213.067 26.4 213.467C26.4 214 26 214.533 25.3333 214.533C24.8 214.533 23.4667 214.533 23.4667 214.533C23.4667 214.533 19.3333 214.8 15.7333 211.067C11.7333 206.933 8.26667 198.8 8.26667 198.8C8.26667 198.8 8 198.267 8.26667 198C8.53333 197.733 9.2 197.733 9.2 197.733H13.6C13.6 197.733 14 197.867 14.2667 198C14.5333 198.133 14.6667 198.533 14.6667 198.533C14.6667 198.533 15.3333 200.4 16.4 202C18.2667 205.2 19.0667 205.867 19.7333 205.6C20.6667 205.067 20.4 201.067 20.4 201.067C20.4 201.067 20.4 199.6 20 198.933C19.6 198.4 18.9333 198.267 18.6667 198.267C18.4 198.267 18.8 197.6 19.3333 197.333C20.1333 196.933 21.6 196.933 23.2 196.933C24.5333 196.933 24.9333 197.067 25.3333 197.2C26.8 197.6 26.4 199.067 26.4 202.4C26.4 203.467 26.2667 205.067 26.9333 205.6C27.3333 205.867 28.1333 205.6 30.1333 202.133C31.0667 200.4 31.8667 198.533 31.8667 198.533C31.8667 198.533 32 198.133 32.2667 198C32.5333 197.867 32.9333 197.867 32.9333 197.867H37.6C37.6 197.867 39.0667 197.733 39.2 198.4C39.4667 199.067 38.6667 200.667 36.8 203.2C33.6 207.333 33.3333 206.933 35.8667 209.467C38.4 211.733 38.9333 212.933 38.9333 213.067C40 214.667 37.8667 214.8 37.8667 214.8Z" fill="#FFCD41"/>
<path d="M74 182C60.8 182 50 192.8 50 206C50 219.2 60.8 230 74 230C87.2 230 98 219.2 98 206C98 192.8 87.2 182 74 182ZM81.3333 197.333H78.4C76.5333 197.333 76 198.267 76 199.6V202.667H80.6667L80.1333 206.667H76V218.667H72V206.667H66.6667V202.667H72V199.067C72 195.067 74.2667 192.933 77.8667 192.933C79.6 192.933 80 193.067 81.3333 193.067V197.333Z" fill="#FFCD41"/>
<path d="M131.067 197.732C130.401 197.732 129.867 198.266 129.867 198.932C129.867 199.599 130.401 200.132 131.067 200.132C131.734 200.132 132.267 199.599 132.267 198.932C132.267 198.266 131.734 197.732 131.067 197.732Z" fill="#FFCD41"/>
<path d="M124 200C120.667 200 118 202.667 118 206C118 209.333 120.667 212 124 212C127.333 212 130 209.333 130 206C130 202.667 127.333 200 124 200ZM124 209.867C121.867 209.867 120.133 208.133 120.133 206C120.133 203.867 121.867 202.133 124 202.133C126.133 202.133 127.867 203.867 127.867 206C127.867 208.133 126 209.867 124 209.867Z" fill="#FFCD41"/>
<path d="M124 182C110.8 182 100 192.8 100 206C100 219.2 110.8 230 124 230C137.2 230 148 219.2 148 206C148 192.8 137.2 182 124 182ZM136 211.2C136 215.067 132.933 218.133 129.067 218.133H118.8C114.933 218.133 111.867 215.067 111.867 211.2V200.933C111.867 197.067 114.933 194 118.8 194H129.067C132.933 194 136 197.067 136 200.933V211.2Z" fill="#FFCD41"/>
<path d="M104 72C96.3 72 90 78.3 90 86C90 93.7 96.3 100 104 100C111.7 100 118 93.7 118 86C118 78.2222 111.7 72 104 72ZM110.144 82.8889C110.144 83.0444 110.144 83.1222 110.144 83.2778C110.144 87.4778 106.956 92.2222 101.2 92.2222C99.4111 92.2222 97.7778 91.6778 96.3778 90.8222C96.6111 90.8222 96.8444 90.9 97.1556 90.9C98.6333 90.9 99.9556 90.4333 101.044 89.5778C99.6444 89.5778 98.4778 88.6444 98.0889 87.4C98.2445 87.4 98.4778 87.4778 98.7111 87.4778C99.0222 87.4778 99.1 87.4778 99.3333 87.4C97.8556 87.0889 96.6111 85.8444 96.6111 84.2889C96.6111 84.2889 96.6111 84.2889 96.6111 84.2111C97.3889 84.4444 97.7 84.6 98.2444 84.6C97.3889 84.0556 96.9222 83.0444 96.9222 81.9556C96.9222 81.4111 97.1556 80.8667 97.3889 80.4C98.9444 82.3444 101.278 83.5889 103.922 83.6667C103.844 83.4333 103.844 83.2 103.844 82.9667C103.844 81.2556 105.244 79.7778 107.033 79.7778C107.967 79.7778 108.744 80.1667 109.367 80.7889C110.067 80.6333 110.767 80.4 111.389 80.0111C111.156 80.7111 110.689 81.3333 109.989 81.7222C110.611 81.6444 111.233 81.4889 111.778 81.2556C111.311 81.8778 110.767 82.4222 110.144 82.8889Z" fill="#00A8F0"/>
<path d="M134 72C126.3 72 120 78.3 120 86C120 93.7 126.3 100 134 100C141.7 100 148 93.7 148 86C148 78.3 141.7 72 134 72ZM130.5 91.8333H128.167V83.2778H130.5V91.8333ZM129.489 81.6444C128.633 81.6444 127.856 80.9444 127.856 80.0111C127.856 79.1556 128.556 78.3778 129.489 78.3778C130.344 78.3778 131.122 79.0778 131.122 80.0111C131.044 80.9444 130.344 81.6444 129.489 81.6444ZM141.389 91.8333H138.278V87.4778C138.278 86.4667 138.278 85.1444 136.8 85.1444C135.322 85.1444 135.167 86.3111 135.167 87.4778V91.9111H132.833V83.3556H135.167V84.1333H135.322C135.711 83.3556 136.644 82.7333 138.044 82.7333C140.844 82.7333 141.467 84.6 141.467 87.0111V91.8333H141.389Z" fill="#00A8F0"/>
<path d="M14 72C6.3 72 0 78.3 0 86C0 93.7 6.3 100 14 100C21.7 100 28 93.7 28 86C28 78.3 21.7 72 14 72ZM22.0889 91.1333H19.6778C19.6778 91.1333 19.1333 91.2111 18.4333 90.7444C17.5 90.1222 16.6444 88.4889 16.0222 88.7222C15.3222 88.9556 15.4 90.1222 15.4 90.3556C15.4 90.6667 15.1667 90.9778 14.7778 90.9778C14.4667 90.9778 13.6889 90.9778 13.6889 90.9778C13.6889 90.9778 11.2778 91.1333 9.17778 88.9556C6.84444 86.5444 4.82222 81.8 4.82222 81.8C4.82222 81.8 4.66667 81.4889 4.82222 81.3333C4.97778 81.1778 5.36667 81.1778 5.36667 81.1778H7.93333C7.93333 81.1778 8.16667 81.2556 8.32222 81.3333C8.47778 81.4111 8.55556 81.6444 8.55556 81.6444C8.55556 81.6444 8.94444 82.7333 9.56667 83.6667C10.6556 85.5333 11.1222 85.9222 11.5111 85.7667C12.0556 85.4556 11.9 83.1222 11.9 83.1222C11.9 83.1222 11.9 82.2667 11.6667 81.8778C11.4333 81.5667 11.0444 81.4889 10.8889 81.4889C10.7333 81.4889 10.9667 81.1 11.2778 80.9444C11.7444 80.7111 12.6 80.7111 13.5333 80.7111C14.3111 80.7111 14.5444 80.7889 14.7778 80.8667C15.6333 81.1 15.4 81.9556 15.4 83.9C15.4 84.5222 15.3222 85.4556 15.7111 85.7667C15.9444 85.9222 16.4111 85.7667 17.5778 83.7444C18.1222 82.7333 18.5889 81.6444 18.5889 81.6444C18.5889 81.6444 18.6667 81.4111 18.8222 81.3333C18.9778 81.2556 19.2111 81.2556 19.2111 81.2556H21.9333C21.9333 81.2556 22.7889 81.1778 22.8667 81.5667C23.0222 81.9556 22.5556 82.8889 21.4667 84.3667C19.6 86.7778 19.4444 86.5444 20.9222 88.0222C22.4 89.3444 22.7111 90.0444 22.7111 90.1222C23.3333 91.0556 22.0889 91.1333 22.0889 91.1333Z" fill="#00A8F0"/>
<path d="M44 72C36.3 72 30 78.3 30 86C30 93.7 36.3 100 44 100C51.7 100 58 93.7 58 86C58 78.3 51.7 72 44 72ZM48.2778 80.9444H46.5667C45.4778 80.9444 45.1667 81.4889 45.1667 82.2667V84.0556H47.8889L47.5778 86.3889H45.1667V93.3889H42.8333V86.3889H39.7222V84.0556H42.8333V81.9556C42.8333 79.6222 44.1556 78.3778 46.2556 78.3778C47.2667 78.3778 47.5 78.4556 48.2778 78.4556V80.9444Z" fill="#00A8F0"/>
<path d="M78.1219 81.1777C77.733 81.1777 77.4219 81.4888 77.4219 81.8777C77.4219 82.2666 77.733 82.5777 78.1219 82.5777C78.5108 82.5777 78.8219 82.2666 78.8219 81.8777C78.8219 81.4888 78.5108 81.1777 78.1219 81.1777Z" fill="#00A8F0"/>
<path d="M74 82.5C72.0556 82.5 70.5 84.0556 70.5 86C70.5 87.9444 72.0556 89.5 74 89.5C75.9444 89.5 77.5 87.9444 77.5 86C77.5 84.0556 75.9444 82.5 74 82.5ZM74 88.2556C72.7556 88.2556 71.7444 87.2444 71.7444 86C71.7444 84.7556 72.7556 83.7444 74 83.7444C75.2444 83.7444 76.2556 84.7556 76.2556 86C76.2556 87.2444 75.1667 88.2556 74 88.2556Z" fill="#00A8F0"/>
<path d="M74 72C66.3 72 60 78.3 60 86C60 93.7 66.3 100 74 100C81.7 100 88 93.7 88 86C88 78.3 81.7 72 74 72ZM81 89.0333C81 91.2889 79.2111 93.0778 76.9556 93.0778H70.9667C68.7111 93.0778 66.9222 91.2889 66.9222 89.0333V83.0444C66.9222 80.7889 68.7111 79 70.9667 79H76.9556C79.2111 79 81 80.7889 81 83.0444V89.0333Z" fill="#00A8F0"/>
<path d="M104 102C96.3 102 90 108.3 90 116C90 123.7 96.3 130 104 130C111.7 130 118 123.7 118 116C118 108.222 111.7 102 104 102ZM110.144 112.889C110.144 113.044 110.144 113.122 110.144 113.278C110.144 117.478 106.956 122.222 101.2 122.222C99.4111 122.222 97.7778 121.678 96.3778 120.822C96.6111 120.822 96.8444 120.9 97.1556 120.9C98.6333 120.9 99.9556 120.433 101.044 119.578C99.6444 119.578 98.4778 118.644 98.0889 117.4C98.2445 117.4 98.4778 117.478 98.7111 117.478C99.0222 117.478 99.1 117.478 99.3333 117.4C97.8556 117.089 96.6111 115.844 96.6111 114.289C96.6111 114.289 96.6111 114.289 96.6111 114.211C97.3889 114.444 97.7 114.6 98.2444 114.6C97.3889 114.056 96.9222 113.044 96.9222 111.956C96.9222 111.411 97.1556 110.867 97.3889 110.4C98.9444 112.344 101.278 113.589 103.922 113.667C103.844 113.433 103.844 113.2 103.844 112.967C103.844 111.256 105.244 109.778 107.033 109.778C107.967 109.778 108.744 110.167 109.367 110.789C110.067 110.633 110.767 110.4 111.389 110.011C111.156 110.711 110.689 111.333 109.989 111.722C110.611 111.644 111.233 111.489 111.778 111.256C111.311 111.878 110.767 112.422 110.144 112.889Z" fill="#FFCD41"/>
<path d="M134 102C126.3 102 120 108.3 120 116C120 123.7 126.3 130 134 130C141.7 130 148 123.7 148 116C148 108.3 141.7 102 134 102ZM130.5 121.833H128.167V113.278H130.5V121.833ZM129.489 111.644C128.633 111.644 127.856 110.944 127.856 110.011C127.856 109.156 128.556 108.378 129.489 108.378C130.344 108.378 131.122 109.078 131.122 110.011C131.044 110.944 130.344 111.644 129.489 111.644ZM141.389 121.833H138.278V117.478C138.278 116.467 138.278 115.144 136.8 115.144C135.322 115.144 135.167 116.311 135.167 117.478V121.911H132.833V113.356H135.167V114.133H135.322C135.711 113.356 136.644 112.733 138.044 112.733C140.844 112.733 141.467 114.6 141.467 117.011V121.833H141.389Z" fill="#FFCD41"/>
<path d="M14 102C6.3 102 0 108.3 0 116C0 123.7 6.3 130 14 130C21.7 130 28 123.7 28 116C28 108.3 21.7 102 14 102ZM22.0889 121.133H19.6778C19.6778 121.133 19.1333 121.211 18.4333 120.744C17.5 120.122 16.6444 118.489 16.0222 118.722C15.3222 118.956 15.4 120.122 15.4 120.356C15.4 120.667 15.1667 120.978 14.7778 120.978C14.4667 120.978 13.6889 120.978 13.6889 120.978C13.6889 120.978 11.2778 121.133 9.17778 118.956C6.84444 116.544 4.82222 111.8 4.82222 111.8C4.82222 111.8 4.66667 111.489 4.82222 111.333C4.97778 111.178 5.36667 111.178 5.36667 111.178H7.93333C7.93333 111.178 8.16667 111.256 8.32222 111.333C8.47778 111.411 8.55556 111.644 8.55556 111.644C8.55556 111.644 8.94444 112.733 9.56667 113.667C10.6556 115.533 11.1222 115.922 11.5111 115.767C12.0556 115.456 11.9 113.122 11.9 113.122C11.9 113.122 11.9 112.267 11.6667 111.878C11.4333 111.567 11.0444 111.489 10.8889 111.489C10.7333 111.489 10.9667 111.1 11.2778 110.944C11.7444 110.711 12.6 110.711 13.5333 110.711C14.3111 110.711 14.5444 110.789 14.7778 110.867C15.6333 111.1 15.4 111.956 15.4 113.9C15.4 114.522 15.3222 115.456 15.7111 115.767C15.9444 115.922 16.4111 115.767 17.5778 113.744C18.1222 112.733 18.5889 111.644 18.5889 111.644C18.5889 111.644 18.6667 111.411 18.8222 111.333C18.9778 111.256 19.2111 111.256 19.2111 111.256H21.9333C21.9333 111.256 22.7889 111.178 22.8667 111.567C23.0222 111.956 22.5556 112.889 21.4667 114.367C19.6 116.778 19.4444 116.544 20.9222 118.022C22.4 119.344 22.7111 120.044 22.7111 120.122C23.3333 121.056 22.0889 121.133 22.0889 121.133Z" fill="#FFCD41"/>
<path d="M44 102C36.3 102 30 108.3 30 116C30 123.7 36.3 130 44 130C51.7 130 58 123.7 58 116C58 108.3 51.7 102 44 102ZM48.2778 110.944H46.5667C45.4778 110.944 45.1667 111.489 45.1667 112.267V114.056H47.8889L47.5778 116.389H45.1667V123.389H42.8333V116.389H39.7222V114.056H42.8333V111.956C42.8333 109.622 44.1556 108.378 46.2556 108.378C47.2667 108.378 47.5 108.456 48.2778 108.456V110.944Z" fill="#FFCD41"/>
<path d="M78.1219 111.178C77.733 111.178 77.4219 111.489 77.4219 111.878C77.4219 112.267 77.733 112.578 78.1219 112.578C78.5108 112.578 78.8219 112.267 78.8219 111.878C78.8219 111.489 78.5108 111.178 78.1219 111.178Z" fill="#FFCD41"/>
<path d="M74 112.5C72.0556 112.5 70.5 114.056 70.5 116C70.5 117.944 72.0556 119.5 74 119.5C75.9444 119.5 77.5 117.944 77.5 116C77.5 114.056 75.9444 112.5 74 112.5ZM74 118.256C72.7556 118.256 71.7444 117.244 71.7444 116C71.7444 114.756 72.7556 113.744 74 113.744C75.2444 113.744 76.2556 114.756 76.2556 116C76.2556 117.244 75.1667 118.256 74 118.256Z" fill="#FFCD41"/>
<path d="M74 102C66.3 102 60 108.3 60 116C60 123.7 66.3 130 74 130C81.7 130 88 123.7 88 116C88 108.3 81.7 102 74 102ZM81 119.033C81 121.289 79.2111 123.078 76.9556 123.078H70.9667C68.7111 123.078 66.9222 121.289 66.9222 119.033V113.044C66.9222 110.789 68.7111 109 70.9667 109H76.9556C79.2111 109 81 110.789 81 113.044V119.033Z" fill="#FFCD41"/>
<path d="M195.559 0.140571C195.372 -0.046857 195.11 -0.046857 194.922 0.140571L194.323 0.777826C194.135 0.965254 194.135 1.22765 194.323 1.41508L199.628 6.72477H197.231H189.738H180.45C180.225 6.72477 180 6.9122 180 7.1746V8.03677C180 8.26168 180.187 8.48659 180.45 8.48659H189.738H197.268H199.666L194.323 13.7963C194.135 13.9837 194.135 14.2461 194.323 14.4335L194.922 15.0333C195.11 15.2207 195.372 15.2207 195.559 15.0333L203 7.58694L195.559 0.140571Z" fill="#F448CF"/>
<path d="M125 0C115.65 0 108 7.65 108 17C108 26.35 115.65 34 125 34C134.35 34 142 26.35 142 17C142 7.55556 134.35 0 125 0ZM132.461 13.2222C132.461 13.4111 132.461 13.5056 132.461 13.6944C132.461 18.7944 128.589 24.5556 121.6 24.5556C119.428 24.5556 117.444 23.8944 115.744 22.8556C116.028 22.8556 116.311 22.95 116.689 22.95C118.483 22.95 120.089 22.3833 121.411 21.3444C119.711 21.3444 118.294 20.2111 117.822 18.7C118.011 18.7 118.294 18.7944 118.578 18.7944C118.956 18.7944 119.05 18.7944 119.333 18.7C117.539 18.3222 116.028 16.8111 116.028 14.9222C116.028 14.9222 116.028 14.9222 116.028 14.8278C116.972 15.1111 117.35 15.3 118.011 15.3C116.972 14.6389 116.406 13.4111 116.406 12.0889C116.406 11.4278 116.689 10.7667 116.972 10.2C118.861 12.5611 121.694 14.0722 124.906 14.1667C124.811 13.8833 124.811 13.6 124.811 13.3167C124.811 11.2389 126.511 9.44444 128.683 9.44444C129.817 9.44444 130.761 9.91667 131.517 10.6722C132.367 10.4833 133.217 10.2 133.972 9.72778C133.689 10.5778 133.122 11.3333 132.272 11.8056C133.028 11.7111 133.783 11.5222 134.444 11.2389C133.878 11.9944 133.217 12.6556 132.461 13.2222Z" fill="white"/>
<path d="M161 0C151.65 0 144 7.65 144 17C144 26.35 151.65 34 161 34C170.35 34 178 26.35 178 17C178 7.65 170.35 0 161 0ZM156.75 24.0833H153.917V13.6944H156.75V24.0833ZM155.522 11.7111C154.483 11.7111 153.539 10.8611 153.539 9.72778C153.539 8.68889 154.389 7.74444 155.522 7.74444C156.561 7.74444 157.506 8.59444 157.506 9.72778C157.411 10.8611 156.561 11.7111 155.522 11.7111ZM169.972 24.0833H166.194V18.7944C166.194 17.5667 166.194 15.9611 164.4 15.9611C162.606 15.9611 162.417 17.3778 162.417 18.7944V24.1778H159.583V13.7889H162.417V14.7333H162.606C163.078 13.7889 164.211 13.0333 165.911 13.0333C169.311 13.0333 170.067 15.3 170.067 18.2278V24.0833H169.972Z" fill="white"/>
<path d="M17 0C7.65 0 0 7.65 0 17C0 26.35 7.65 34 17 34C26.35 34 34 26.35 34 17C34 7.65 26.35 0 17 0ZM26.8222 23.2333H23.8944C23.8944 23.2333 23.2333 23.3278 22.3833 22.7611C21.25 22.0056 20.2111 20.0222 19.4556 20.3056C18.6056 20.5889 18.7 22.0056 18.7 22.2889C18.7 22.6667 18.4167 23.0444 17.9444 23.0444C17.5667 23.0444 16.6222 23.0444 16.6222 23.0444C16.6222 23.0444 13.6944 23.2333 11.1444 20.5889C8.31111 17.6611 5.85556 11.9 5.85556 11.9C5.85556 11.9 5.66667 11.5222 5.85556 11.3333C6.04444 11.1444 6.51667 11.1444 6.51667 11.1444H9.63333C9.63333 11.1444 9.91667 11.2389 10.1056 11.3333C10.2944 11.4278 10.3889 11.7111 10.3889 11.7111C10.3889 11.7111 10.8611 13.0333 11.6167 14.1667C12.9389 16.4333 13.5056 16.9056 13.9778 16.7167C14.6389 16.3389 14.45 13.5056 14.45 13.5056C14.45 13.5056 14.45 12.4667 14.1667 11.9944C13.8833 11.6167 13.4111 11.5222 13.2222 11.5222C13.0333 11.5222 13.3167 11.05 13.6944 10.8611C14.2611 10.5778 15.3 10.5778 16.4333 10.5778C17.3778 10.5778 17.6611 10.6722 17.9444 10.7667C18.9833 11.05 18.7 12.0889 18.7 14.45C18.7 15.2056 18.6056 16.3389 19.0778 16.7167C19.3611 16.9056 19.9278 16.7167 21.3444 14.2611C22.0056 13.0333 22.5722 11.7111 22.5722 11.7111C22.5722 11.7111 22.6667 11.4278 22.8556 11.3333C23.0444 11.2389 23.3278 11.2389 23.3278 11.2389H26.6333C26.6333 11.2389 27.6722 11.1444 27.7667 11.6167C27.9556 12.0889 27.3889 13.2222 26.0667 15.0167C23.8 17.9444 23.6111 17.6611 25.4056 19.4556C27.2 21.0611 27.5778 21.9111 27.5778 22.0056C28.3333 23.1389 26.8222 23.2333 26.8222 23.2333Z" fill="white"/>
<path d="M53 0C43.65 0 36 7.65 36 17C36 26.35 43.65 34 53 34C62.35 34 70 26.35 70 17C70 7.65 62.35 0 53 0ZM58.1944 10.8611H56.1167C54.7944 10.8611 54.4167 11.5222 54.4167 12.4667V14.6389H57.7222L57.3444 17.4722H54.4167V25.9722H51.5833V17.4722H47.8056V14.6389H51.5833V12.0889C51.5833 9.25555 53.1889 7.74444 55.7389 7.74444C56.9667 7.74444 57.25 7.83889 58.1944 7.83889V10.8611Z" fill="white"/>
<path d="M94.0053 11.1445C93.5331 11.1445 93.1553 11.5223 93.1553 11.9945C93.1553 12.4667 93.5331 12.8445 94.0053 12.8445C94.4776 12.8445 94.8553 12.4667 94.8553 11.9945C94.8553 11.5223 94.4776 11.1445 94.0053 11.1445Z" fill="white"/>
<path d="M89 12.75C86.6389 12.75 84.75 14.6389 84.75 17C84.75 19.3611 86.6389 21.25 89 21.25C91.3611 21.25 93.25 19.3611 93.25 17C93.25 14.6389 91.3611 12.75 89 12.75ZM89 19.7389C87.4889 19.7389 86.2611 18.5111 86.2611 17C86.2611 15.4889 87.4889 14.2611 89 14.2611C90.5111 14.2611 91.7389 15.4889 91.7389 17C91.7389 18.5111 90.4167 19.7389 89 19.7389Z" fill="white"/>
<path d="M89 0C79.65 0 72 7.65 72 17C72 26.35 79.65 34 89 34C98.35 34 106 26.35 106 17C106 7.65 98.35 0 89 0ZM97.5 20.6833C97.5 23.4222 95.3278 25.5944 92.5889 25.5944H85.3167C82.5778 25.5944 80.4056 23.4222 80.4056 20.6833V13.4111C80.4056 10.6722 82.5778 8.5 85.3167 8.5H92.5889C95.3278 8.5 97.5 10.6722 97.5 13.4111V20.6833Z" fill="white"/>
<path d="M125 36C115.65 36 108 43.65 108 53C108 62.35 115.65 70 125 70C134.35 70 142 62.35 142 53C142 43.5556 134.35 36 125 36ZM132.461 49.2222C132.461 49.4111 132.461 49.5056 132.461 49.6944C132.461 54.7944 128.589 60.5556 121.6 60.5556C119.428 60.5556 117.444 59.8944 115.744 58.8556C116.028 58.8556 116.311 58.95 116.689 58.95C118.483 58.95 120.089 58.3833 121.411 57.3444C119.711 57.3444 118.294 56.2111 117.822 54.7C118.011 54.7 118.294 54.7944 118.578 54.7944C118.956 54.7944 119.05 54.7944 119.333 54.7C117.539 54.3222 116.028 52.8111 116.028 50.9222C116.028 50.9222 116.028 50.9222 116.028 50.8278C116.972 51.1111 117.35 51.3 118.011 51.3C116.972 50.6389 116.406 49.4111 116.406 48.0889C116.406 47.4278 116.689 46.7667 116.972 46.2C118.861 48.5611 121.694 50.0722 124.906 50.1667C124.811 49.8833 124.811 49.6 124.811 49.3167C124.811 47.2389 126.511 45.4444 128.683 45.4444C129.817 45.4444 130.761 45.9167 131.517 46.6722C132.367 46.4833 133.217 46.2 133.972 45.7278C133.689 46.5778 133.122 47.3333 132.272 47.8056C133.028 47.7111 133.783 47.5222 134.444 47.2389C133.878 47.9944 133.217 48.6556 132.461 49.2222Z" fill="#FFCD41"/>
<path d="M161 36C151.65 36 144 43.65 144 53C144 62.35 151.65 70 161 70C170.35 70 178 62.35 178 53C178 43.65 170.35 36 161 36ZM156.75 60.0833H153.917V49.6944H156.75V60.0833ZM155.522 47.7111C154.483 47.7111 153.539 46.8611 153.539 45.7278C153.539 44.6889 154.389 43.7444 155.522 43.7444C156.561 43.7444 157.506 44.5944 157.506 45.7278C157.411 46.8611 156.561 47.7111 155.522 47.7111ZM169.972 60.0833H166.194V54.7944C166.194 53.5667 166.194 51.9611 164.4 51.9611C162.606 51.9611 162.417 53.3778 162.417 54.7944V60.1778H159.583V49.7889H162.417V50.7333H162.606C163.078 49.7889 164.211 49.0333 165.911 49.0333C169.311 49.0333 170.067 51.3 170.067 54.2278V60.0833H169.972Z" fill="#FFCD41"/>
<path d="M17 36C7.65 36 0 43.65 0 53C0 62.35 7.65 70 17 70C26.35 70 34 62.35 34 53C34 43.65 26.35 36 17 36ZM26.8222 59.2333H23.8944C23.8944 59.2333 23.2333 59.3278 22.3833 58.7611C21.25 58.0056 20.2111 56.0222 19.4556 56.3056C18.6056 56.5889 18.7 58.0056 18.7 58.2889C18.7 58.6667 18.4167 59.0444 17.9444 59.0444C17.5667 59.0444 16.6222 59.0444 16.6222 59.0444C16.6222 59.0444 13.6944 59.2333 11.1444 56.5889C8.31111 53.6611 5.85556 47.9 5.85556 47.9C5.85556 47.9 5.66667 47.5222 5.85556 47.3333C6.04444 47.1444 6.51667 47.1444 6.51667 47.1444H9.63333C9.63333 47.1444 9.91667 47.2389 10.1056 47.3333C10.2944 47.4278 10.3889 47.7111 10.3889 47.7111C10.3889 47.7111 10.8611 49.0333 11.6167 50.1667C12.9389 52.4333 13.5056 52.9056 13.9778 52.7167C14.6389 52.3389 14.45 49.5056 14.45 49.5056C14.45 49.5056 14.45 48.4667 14.1667 47.9944C13.8833 47.6167 13.4111 47.5222 13.2222 47.5222C13.0333 47.5222 13.3167 47.05 13.6944 46.8611C14.2611 46.5778 15.3 46.5778 16.4333 46.5778C17.3778 46.5778 17.6611 46.6722 17.9444 46.7667C18.9833 47.05 18.7 48.0889 18.7 50.45C18.7 51.2056 18.6056 52.3389 19.0778 52.7167C19.3611 52.9056 19.9278 52.7167 21.3444 50.2611C22.0056 49.0333 22.5722 47.7111 22.5722 47.7111C22.5722 47.7111 22.6667 47.4278 22.8556 47.3333C23.0444 47.2389 23.3278 47.2389 23.3278 47.2389H26.6333C26.6333 47.2389 27.6722 47.1444 27.7667 47.6167C27.9556 48.0889 27.3889 49.2222 26.0667 51.0167C23.8 53.9444 23.6111 53.6611 25.4056 55.4556C27.2 57.0611 27.5778 57.9111 27.5778 58.0056C28.3333 59.1389 26.8222 59.2333 26.8222 59.2333Z" fill="#FFCD41"/>
<path d="M53 36C43.65 36 36 43.65 36 53C36 62.35 43.65 70 53 70C62.35 70 70 62.35 70 53C70 43.65 62.35 36 53 36ZM58.1944 46.8611H56.1167C54.7944 46.8611 54.4167 47.5222 54.4167 48.4667V50.6389H57.7222L57.3444 53.4722H54.4167V61.9722H51.5833V53.4722H47.8056V50.6389H51.5833V48.0889C51.5833 45.2556 53.1889 43.7444 55.7389 43.7444C56.9667 43.7444 57.25 43.8389 58.1944 43.8389V46.8611Z" fill="#FFCD41"/>
<path d="M94.0053 47.1445C93.5331 47.1445 93.1553 47.5223 93.1553 47.9945C93.1553 48.4667 93.5331 48.8445 94.0053 48.8445C94.4776 48.8445 94.8553 48.4667 94.8553 47.9945C94.8553 47.5223 94.4776 47.1445 94.0053 47.1445Z" fill="#FFCD41"/>
<path d="M89 48.75C86.6389 48.75 84.75 50.6389 84.75 53C84.75 55.3611 86.6389 57.25 89 57.25C91.3611 57.25 93.25 55.3611 93.25 53C93.25 50.6389 91.3611 48.75 89 48.75ZM89 55.7389C87.4889 55.7389 86.2611 54.5111 86.2611 53C86.2611 51.4889 87.4889 50.2611 89 50.2611C90.5111 50.2611 91.7389 51.4889 91.7389 53C91.7389 54.5111 90.4167 55.7389 89 55.7389Z" fill="#FFCD41"/>
<path d="M89 36C79.65 36 72 43.65 72 53C72 62.35 79.65 70 89 70C98.35 70 106 62.35 106 53C106 43.65 98.35 36 89 36ZM97.5 56.6833C97.5 59.4222 95.3278 61.5944 92.5889 61.5944H85.3167C82.5778 61.5944 80.4056 59.4222 80.4056 56.6833V49.4111C80.4056 46.6722 82.5778 44.5 85.3167 44.5H92.5889C95.3278 44.5 97.5 46.6722 97.5 49.4111V56.6833Z" fill="#FFCD41"/>
</svg>
