<svg width="279" height="41" viewBox="0 0 279 41" fill="none" xmlns="http://www.w3.org/2000/svg">
<path d="M89.5234 19.4213C89.5234 17.849 89.8018 16.3744 90.3584 14.9975C90.9248 13.6107 91.7402 12.3949 92.8047 11.35C93.8691 10.2953 95.0898 9.49942 96.4668 8.96231C97.8438 8.41544 99.333 8.142 100.935 8.142C102.194 8.142 103.396 8.32755 104.538 8.69864C105.681 9.05997 106.789 9.61172 107.863 10.3539L107.673 13.8695C106.687 13.0297 105.642 12.3998 104.538 11.9799C103.444 11.56 102.292 11.35 101.081 11.35C98.7373 11.35 96.8281 12.102 95.3535 13.6059C93.8887 15.1098 93.1562 17.058 93.1562 19.4506C93.1562 21.765 93.8691 23.6742 95.2949 25.1781C96.7305 26.682 98.5371 27.434 100.715 27.434C101.984 27.434 103.19 27.2094 104.333 26.7602C105.485 26.3109 106.589 25.6322 107.644 24.724V28.6645C106.706 29.3383 105.686 29.8412 104.582 30.1732C103.479 30.5053 102.282 30.6713 100.993 30.6713C99.3525 30.6713 97.834 30.4027 96.4375 29.8656C95.0508 29.3285 93.8301 28.5375 92.7754 27.4926C91.7305 26.4672 90.9248 25.2611 90.3584 23.8744C89.8018 22.4779 89.5234 20.9936 89.5234 19.4213Z" fill="white"/>
<path d="M111.305 23.1713C111.305 22.1557 111.496 21.1986 111.876 20.3002C112.267 19.392 112.824 18.5863 113.546 17.8832C114.259 17.1898 115.079 16.6576 116.007 16.2865C116.935 15.9154 117.907 15.7299 118.922 15.7299C119.967 15.7299 120.949 15.9154 121.867 16.2865C122.794 16.6576 123.624 17.2045 124.357 17.9272C125.089 18.64 125.646 19.4457 126.027 20.3441C126.408 21.2426 126.598 22.185 126.598 23.1713C126.598 24.1967 126.408 25.1586 126.027 26.057C125.656 26.9555 125.109 27.7514 124.386 28.4447C123.624 29.1772 122.78 29.7289 121.852 30.1C120.924 30.4809 119.948 30.6713 118.922 30.6713C117.916 30.6713 116.95 30.4809 116.022 30.1C115.094 29.7289 114.269 29.1869 113.546 28.474C112.814 27.7514 112.257 26.9408 111.876 26.0424C111.496 25.144 111.305 24.1869 111.305 23.1713ZM114.66 23.2006C114.66 24.4897 115.075 25.5834 115.905 26.4818C116.745 27.3705 117.76 27.8148 118.952 27.8148C120.143 27.8148 121.154 27.3705 121.984 26.4818C122.824 25.5834 123.244 24.4897 123.244 23.2006C123.244 21.9115 122.829 20.8227 121.998 19.934C121.168 19.0356 120.153 18.5863 118.952 18.5863C117.76 18.5863 116.745 19.0356 115.905 19.934C115.075 20.8227 114.66 21.9115 114.66 23.2006Z" fill="white"/>
<path d="M130.714 30.1V7.39493H133.892V30.1H130.714Z" fill="white"/>
<path d="M138.023 23.1713C138.023 22.1557 138.213 21.1986 138.594 20.3002C138.985 19.392 139.541 18.5863 140.264 17.8832C140.977 17.1898 141.797 16.6576 142.725 16.2865C143.653 15.9154 144.624 15.7299 145.64 15.7299C146.685 15.7299 147.666 15.9154 148.584 16.2865C149.512 16.6576 150.342 17.2045 151.074 17.9272C151.807 18.64 152.363 19.4457 152.744 20.3441C153.125 21.2426 153.316 22.185 153.316 23.1713C153.316 24.1967 153.125 25.1586 152.744 26.057C152.373 26.9555 151.826 27.7514 151.104 28.4447C150.342 29.1772 149.497 29.7289 148.57 30.1C147.642 30.4809 146.665 30.6713 145.64 30.6713C144.634 30.6713 143.667 30.4809 142.739 30.1C141.812 29.7289 140.987 29.1869 140.264 28.474C139.531 27.7514 138.975 26.9408 138.594 26.0424C138.213 25.144 138.023 24.1869 138.023 23.1713ZM141.377 23.2006C141.377 24.4897 141.792 25.5834 142.622 26.4818C143.462 27.3705 144.478 27.8148 145.669 27.8148C146.861 27.8148 147.871 27.3705 148.701 26.4818C149.541 25.5834 149.961 24.4897 149.961 23.2006C149.961 21.9115 149.546 20.8227 148.716 19.934C147.886 19.0356 146.87 18.5863 145.669 18.5863C144.478 18.5863 143.462 19.0356 142.622 19.934C141.792 20.8227 141.377 21.9115 141.377 23.2006Z" fill="white"/>
<path d="M157.285 30.1V16.184H160.463V18.4252C160.805 17.5072 161.254 16.8285 161.811 16.3891C162.378 15.9496 163.076 15.7299 163.906 15.7299C164.355 15.7299 164.795 15.7836 165.224 15.891C165.664 15.9984 166.093 16.1547 166.513 16.3598L165.371 19.0551C165.097 18.8598 164.799 18.7182 164.477 18.6303C164.165 18.5326 163.813 18.4838 163.422 18.4838C162.368 18.4838 161.611 18.9086 161.152 19.7582C160.693 20.5981 160.463 22.0141 160.463 24.0063V30.1H157.285Z" fill="white"/>
<path d="M167.333 27.5805L169.97 26.1449C170.165 26.8383 170.526 27.3656 171.054 27.727C171.581 28.0883 172.26 28.269 173.09 28.269C173.803 28.269 174.359 28.1078 174.76 27.7856C175.17 27.4535 175.375 27.0043 175.375 26.4379C175.375 25.6859 174.652 25.0414 173.207 24.5043C172.719 24.3285 172.343 24.182 172.079 24.0648C170.595 23.4496 169.555 22.8246 168.959 22.1898C168.373 21.5551 168.08 20.7836 168.08 19.8754C168.08 18.6352 168.563 17.6293 169.53 16.8578C170.507 16.0863 171.796 15.7006 173.397 15.7006C174.472 15.7006 175.39 15.9008 176.151 16.3012C176.923 16.6918 177.484 17.2533 177.836 17.9857L175.58 19.5385C175.414 19.099 175.121 18.7523 174.701 18.4984C174.291 18.2348 173.812 18.1029 173.266 18.1029C172.66 18.1029 172.172 18.2494 171.801 18.5424C171.439 18.8256 171.259 19.2065 171.259 19.685C171.259 20.4076 172.079 21.0668 173.72 21.6625C174.237 21.8481 174.638 21.9994 174.921 22.1166C176.2 22.6244 177.113 23.2006 177.66 23.8451C178.217 24.4799 178.495 25.2758 178.495 26.2328C178.495 27.6195 177.992 28.7084 176.986 29.4994C175.98 30.2807 174.594 30.6713 172.826 30.6713C171.469 30.6713 170.341 30.4174 169.442 29.9096C168.544 29.4018 167.841 28.6254 167.333 27.5805Z" fill="white"/>
<path d="M191.282 19.4213C191.282 17.8002 191.555 16.3061 192.102 14.9389C192.659 13.5717 193.479 12.3656 194.563 11.3207C195.608 10.2953 196.834 9.51407 198.24 8.97696C199.646 8.43985 201.15 8.1713 202.752 8.1713C204.441 8.1713 205.95 8.47891 207.278 9.09415C208.616 9.70938 209.807 10.6518 210.852 11.9213L208.304 13.8402C207.581 13.0004 206.765 12.3754 205.857 11.9652C204.949 11.5551 203.933 11.35 202.81 11.35C200.486 11.35 198.587 12.0971 197.112 13.5912C195.647 15.0756 194.915 17.0092 194.915 19.392C194.915 21.8139 195.647 23.7816 197.112 25.2953C198.587 26.7992 200.496 27.5512 202.84 27.5512C204.832 27.5512 206.399 27.0873 207.542 26.1596C208.684 25.2318 209.256 23.9672 209.256 22.3656V22.058H204.099V19.1137H212.596C212.596 19.2602 212.6 19.4652 212.61 19.7289C212.639 20.4223 212.654 20.891 212.654 21.1352C212.654 24.1527 211.79 26.4965 210.061 28.1664C208.333 29.8363 205.896 30.6713 202.752 30.6713C200.994 30.6713 199.427 30.4125 198.05 29.8949C196.673 29.3773 195.467 28.5961 194.431 27.5512C193.416 26.516 192.635 25.3002 192.088 23.9037C191.551 22.5072 191.282 21.0131 191.282 19.4213Z" fill="white"/>
<path d="M216.667 30.1V16.184H219.846V18.4252C220.188 17.5072 220.637 16.8285 221.194 16.3891C221.76 15.9496 222.458 15.7299 223.288 15.7299C223.738 15.7299 224.177 15.7836 224.607 15.891C225.046 15.9984 225.476 16.1547 225.896 16.3598L224.753 19.0551C224.48 18.8598 224.182 18.7182 223.86 18.6303C223.547 18.5326 223.196 18.4838 222.805 18.4838C221.75 18.4838 220.993 18.9086 220.534 19.7582C220.075 20.5981 219.846 22.0141 219.846 24.0063V30.1H216.667Z" fill="white"/>
<path d="M227.287 23.1713C227.287 22.1557 227.477 21.1986 227.858 20.3002C228.249 19.392 228.805 18.5863 229.528 17.8832C230.241 17.1898 231.061 16.6576 231.989 16.2865C232.917 15.9154 233.888 15.7299 234.904 15.7299C235.949 15.7299 236.93 15.9154 237.848 16.2865C238.776 16.6576 239.606 17.2045 240.338 17.9272C241.071 18.64 241.628 19.4457 242.008 20.3441C242.389 21.2426 242.58 22.185 242.58 23.1713C242.58 24.1967 242.389 25.1586 242.008 26.057C241.637 26.9555 241.09 27.7514 240.368 28.4447C239.606 29.1772 238.761 29.7289 237.834 30.1C236.906 30.4809 235.929 30.6713 234.904 30.6713C233.898 30.6713 232.931 30.4809 232.004 30.1C231.076 29.7289 230.251 29.1869 229.528 28.474C228.796 27.7514 228.239 26.9408 227.858 26.0424C227.477 25.144 227.287 24.1869 227.287 23.1713ZM230.641 23.2006C230.641 24.4897 231.056 25.5834 231.886 26.4818C232.726 27.3705 233.742 27.8148 234.933 27.8148C236.125 27.8148 237.135 27.3705 237.965 26.4818C238.805 25.5834 239.225 24.4897 239.225 23.2006C239.225 21.9115 238.81 20.8227 237.98 19.934C237.15 19.0356 236.134 18.5863 234.933 18.5863C233.742 18.5863 232.726 19.0356 231.886 19.934C231.056 20.8227 230.641 21.9115 230.641 23.2006Z" fill="white"/>
<path d="M246.446 23.0834V16.2133H249.625V24.0356C249.625 25.3832 249.903 26.35 250.46 26.9359C251.017 27.5219 251.92 27.8148 253.17 27.8148C254.42 27.8148 255.323 27.5219 255.88 26.9359C256.437 26.35 256.715 25.3832 256.715 24.0356V16.2133H259.894V23.0834C259.894 25.7397 259.361 27.6684 258.297 28.8695C257.232 30.0707 255.533 30.6713 253.199 30.6713C250.826 30.6713 249.107 30.0756 248.043 28.8842C246.979 27.6928 246.446 25.7592 246.446 23.0834Z" fill="white"/>
<path d="M264.786 36.6332V16.2133H267.964V18.4838C268.335 17.6049 268.926 16.9262 269.737 16.4477C270.557 15.9691 271.534 15.7299 272.666 15.7299C274.512 15.7299 276.006 16.4135 277.149 17.7807C278.301 19.1381 278.877 20.9252 278.877 23.142C278.877 25.476 278.311 27.3168 277.178 28.6645C276.055 30.0023 274.512 30.6713 272.549 30.6713C271.573 30.6713 270.704 30.476 269.942 30.0854C269.19 29.6947 268.531 29.099 267.964 28.2982V36.6332H264.786ZM267.862 23.1127C267.862 24.5482 268.218 25.6957 268.931 26.5551C269.654 27.4145 270.601 27.8441 271.773 27.8441C272.974 27.8441 273.902 27.4438 274.556 26.643C275.22 25.8422 275.552 24.7045 275.552 23.2299C275.552 21.765 275.205 20.6225 274.512 19.8022C273.829 18.9721 272.886 18.557 271.685 18.557C270.484 18.557 269.546 18.9574 268.872 19.7582C268.199 20.559 267.862 21.6772 267.862 23.1127Z" fill="white"/>
<mask id="mask0" mask-type="alpha" maskUnits="userSpaceOnUse" x="0" y="0" width="72" height="40">
<path d="M27.8562 14.004C25.6802 11.348 22.9922 10.02 19.7922 10.02C18.3842 10.02 17.0722 10.276 15.8562 10.788C14.6722 11.3 13.6482 12.004 12.7842 12.9C11.9202 13.764 11.2322 14.804 10.7202 16.02C10.2402 17.236 10.0002 18.548 10.0002 19.956C10.0002 21.396 10.2402 22.724 10.7202 23.94C11.2322 25.156 11.9202 26.212 12.7842 27.108C13.6802 28.004 14.7202 28.708 15.9042 29.22C17.0882 29.732 18.3682 29.988 19.7442 29.988C22.7522 29.988 25.4562 28.708 27.8562 26.148V37.284L26.8962 37.62C25.4562 38.132 24.1122 38.5 22.8642 38.724C21.6162 38.98 20.3842 39.108 19.1682 39.108C16.6722 39.108 14.2722 38.644 11.9682 37.716C9.69616 36.756 7.68016 35.428 5.92016 33.732C4.19216 32.004 2.80016 29.972 1.74416 27.636C0.688156 25.268 0.160156 22.692 0.160156 19.908C0.160156 17.124 0.672156 14.58 1.69616 12.276C2.75216 9.93999 4.14416 7.93999 5.87216 6.27599C7.63216 4.57999 9.66416 3.26799 11.9682 2.33999C14.2722 1.37999 16.6882 0.899994 19.2162 0.899994C20.6562 0.899994 22.0642 1.05999 23.4402 1.37999C24.8482 1.66799 26.3202 2.13199 27.8562 2.77199V14.004Z" fill="white"/>
<path d="M53.0078 17.844H71.6798C71.6798 19.764 71.5998 21.508 71.4398 23.076C71.2798 24.644 70.9598 26.1 70.4798 27.444C69.8078 29.332 68.8958 31.012 67.7438 32.484C66.5918 33.924 65.2318 35.14 63.6638 36.132C62.1278 37.092 60.4318 37.828 58.5758 38.34C56.7198 38.852 54.7678 39.108 52.7198 39.108C49.9038 39.108 47.3278 38.644 44.9918 37.716C42.6878 36.788 40.7038 35.492 39.0398 33.828C37.3758 32.132 36.0798 30.116 35.1518 27.78C34.2238 25.412 33.7598 22.804 33.7598 19.956C33.7598 17.14 34.2078 14.564 35.1038 12.228C36.0318 9.85999 37.3278 7.84399 38.9918 6.17999C40.6878 4.516 42.7198 3.21999 45.0878 2.29199C47.4558 1.36399 50.0958 0.899994 53.0078 0.899994C56.7838 0.899994 60.0958 1.71599 62.9438 3.34799C65.7918 4.97999 68.0478 7.50799 69.7118 10.932L60.7838 14.628C59.9518 12.644 58.8638 11.22 57.5198 10.356C56.2078 9.49199 54.7038 9.05999 53.0078 9.05999C51.5998 9.05999 50.3198 9.332 49.1678 9.876C48.0158 10.388 47.0238 11.14 46.1918 12.132C45.3918 13.092 44.7518 14.26 44.2718 15.636C43.8238 17.012 43.5998 18.548 43.5998 20.244C43.5998 21.78 43.7918 23.204 44.1758 24.516C44.5918 25.828 45.1998 26.964 45.9998 27.924C46.7998 28.884 47.7918 29.636 48.9758 30.18C50.1598 30.692 51.5358 30.948 53.1038 30.948C54.0318 30.948 54.9278 30.852 55.7918 30.66C56.6558 30.436 57.4238 30.1 58.0958 29.652C58.7998 29.172 59.3758 28.564 59.8238 27.828C60.2718 27.092 60.5758 26.196 60.7358 25.14H53.0078V17.844Z" fill="white"/>
</mask>
<g mask="url(#mask0)">
<rect x="28.0002" y="1.10001" width="25" height="42" fill="url(#paint0_linear)"/>
<rect x="53.0002" y="1.10001" width="19" height="42" fill="url(#paint1_linear)"/>
<rect x="0.000244141" y="1.10001" width="28" height="42" fill="url(#paint2_linear)"/>
</g>
<defs>
<linearGradient id="paint0_linear" x1="30.0002" y1="19.6" x2="53.0002" y2="19.6" gradientUnits="userSpaceOnUse">
<stop stop-color="#FF9900"/>
<stop offset="1" stop-color="#FFD255"/>
</linearGradient>
<linearGradient id="paint1_linear" x1="53.0002" y1="22.1" x2="68.5802" y2="22.1" gradientUnits="userSpaceOnUse">
<stop stop-color="#008EDE"/>
<stop offset="1" stop-color="#40D2FF"/>
</linearGradient>
<linearGradient id="paint2_linear" x1="-1.99976" y1="21.1" x2="29.0002" y2="21.1" gradientUnits="userSpaceOnUse">
<stop stop-color="#C224A0"/>
<stop offset="1" stop-color="#FF60DD"/>
</linearGradient>
</defs>
</svg>
