<svg width="72" height="39" viewBox="0 0 72 39" fill="none" xmlns="http://www.w3.org/2000/svg">
<mask id="mask0" mask-type="alpha" maskUnits="userSpaceOnUse" x="0" y="0" width="72" height="39">
<path d="M27.8562 13.104C25.6802 10.448 22.9922 9.12 19.7922 9.12C18.3842 9.12 17.0722 9.376 15.8562 9.888C14.6722 10.4 13.6482 11.104 12.7842 12C11.9202 12.864 11.2322 13.904 10.7202 15.12C10.2402 16.336 10.0002 17.648 10.0002 19.056C10.0002 20.496 10.2402 21.824 10.7202 23.04C11.2322 24.256 11.9202 25.312 12.7842 26.208C13.6802 27.104 14.7202 27.808 15.9042 28.32C17.0882 28.832 18.3682 29.088 19.7442 29.088C22.7522 29.088 25.4562 27.808 27.8562 25.248V36.384L26.8962 36.72C25.4562 37.232 24.1122 37.6 22.8642 37.824C21.6162 38.08 20.3842 38.208 19.1682 38.208C16.6722 38.208 14.2722 37.744 11.9682 36.816C9.69616 35.856 7.68016 34.528 5.92016 32.832C4.19216 31.104 2.80016 29.072 1.74416 26.736C0.688156 24.368 0.160156 21.792 0.160156 19.008C0.160156 16.224 0.672156 13.68 1.69616 11.376C2.75216 9.04 4.14416 7.04 5.87216 5.376C7.63216 3.68 9.66416 2.368 11.9682 1.44C14.2722 0.48 16.6882 0 19.2162 0C20.6562 0 22.0642 0.16 23.4402 0.48C24.8482 0.768 26.3202 1.232 27.8562 1.872V13.104Z" fill="white"/>
<path d="M53.0078 16.944H71.6798C71.6798 18.864 71.5998 20.608 71.4398 22.176C71.2798 23.744 70.9598 25.2 70.4798 26.544C69.8078 28.432 68.8958 30.112 67.7438 31.584C66.5918 33.024 65.2318 34.24 63.6638 35.232C62.1278 36.192 60.4318 36.928 58.5758 37.44C56.7198 37.952 54.7678 38.208 52.7198 38.208C49.9038 38.208 47.3278 37.744 44.9918 36.816C42.6878 35.888 40.7038 34.592 39.0398 32.928C37.3758 31.232 36.0798 29.216 35.1518 26.88C34.2238 24.512 33.7598 21.904 33.7598 19.056C33.7598 16.24 34.2078 13.664 35.1038 11.328C36.0318 8.96 37.3278 6.944 38.9918 5.28C40.6878 3.616 42.7198 2.32 45.0878 1.392C47.4558 0.464 50.0958 0 53.0078 0C56.7838 0 60.0958 0.816 62.9438 2.448C65.7918 4.08 68.0478 6.608 69.7118 10.032L60.7838 13.728C59.9518 11.744 58.8638 10.32 57.5198 9.456C56.2078 8.592 54.7038 8.16 53.0078 8.16C51.5998 8.16 50.3198 8.432 49.1678 8.976C48.0158 9.488 47.0238 10.24 46.1918 11.232C45.3918 12.192 44.7518 13.36 44.2718 14.736C43.8238 16.112 43.5998 17.648 43.5998 19.344C43.5998 20.88 43.7918 22.304 44.1758 23.616C44.5918 24.928 45.1998 26.064 45.9998 27.024C46.7998 27.984 47.7918 28.736 48.9758 29.28C50.1598 29.792 51.5358 30.048 53.1038 30.048C54.0318 30.048 54.9278 29.952 55.7918 29.76C56.6558 29.536 57.4238 29.2 58.0958 28.752C58.7998 28.272 59.3758 27.664 59.8238 26.928C60.2718 26.192 60.5758 25.296 60.7358 24.24H53.0078V16.944Z" fill="white"/>
</mask>
<g mask="url(#mask0)">
<rect x="28.0002" y="0.200195" width="25" height="42" fill="url(#paint0_linear)"/>
<rect x="53.0002" y="0.200195" width="19" height="42" fill="url(#paint1_linear)"/>
<rect x="0.000244141" y="0.200195" width="28" height="42" fill="url(#paint2_linear)"/>
</g>
<defs>
<linearGradient id="paint0_linear" x1="30.0002" y1="18.7002" x2="53.0002" y2="18.7002" gradientUnits="userSpaceOnUse">
<stop stop-color="#FF9900"/>
<stop offset="1" stop-color="#FFD255"/>
</linearGradient>
<linearGradient id="paint1_linear" x1="53.0002" y1="21.2002" x2="68.5802" y2="21.2002" gradientUnits="userSpaceOnUse">
<stop stop-color="#008EDE"/>
<stop offset="1" stop-color="#40D2FF"/>
</linearGradient>
<linearGradient id="paint2_linear" x1="-1.99976" y1="20.2002" x2="29.0002" y2="20.2002" gradientUnits="userSpaceOnUse">
<stop stop-color="#C224A0"/>
<stop offset="1" stop-color="#FF60DD"/>
</linearGradient>
</defs>
</svg>
