<svg width="96" height="96" viewBox="0 0 96 96" fill="none" xmlns="http://www.w3.org/2000/svg">
<g clip-path="url(#clip0)">
<path fill-rule="evenodd" clip-rule="evenodd" d="M49.3712 59.5591H29.1916C28.9957 59.5591 28.8977 59.3632 28.9957 59.1673C31.7386 54.8571 33.8937 49.1755 33.3059 44.1795C32.6202 38.5959 28.212 37.6163 26.0569 42.6122C23.412 49.0775 18.8079 55.7387 13.3222 60.6367C12.3426 61.5183 11.7549 62.6938 11.7549 64.0653V90.1224C11.7549 92.7673 13.91 95.0204 16.6528 95.0204H44.3753C46.9222 95.0204 48.9794 92.9632 48.9794 90.4163C48.9794 88.751 47.51 86.8897 47.0202 86.4C46.9222 86.302 47.0202 86.204 47.1181 86.204C49.1753 85.8122 50.7426 83.951 50.7426 81.6979C50.7426 79.9347 49.2732 78.2693 48.7835 77.6816C48.6855 77.5836 48.7835 77.4857 48.8814 77.3877C50.8406 76.8979 52.4079 75.0367 52.4079 72.8816C52.4079 71.0204 51.0365 69.453 50.5467 68.8653C50.4488 68.7673 50.5467 68.5714 50.6447 68.5714C52.6039 68.0816 54.0732 66.2204 54.0732 64.1632C53.9753 61.6163 51.9181 59.5591 49.3712 59.5591Z" stroke="#00A8F0" stroke-width="2.0386" stroke-miterlimit="10"/>
<path d="M76.3101 25.6653H19.7876" stroke="#FFCD41" stroke-width="2" stroke-miterlimit="10" stroke-linecap="round"/>
<path d="M76.3104 35.4612H41.1431" stroke="#FFCD41" stroke-width="2" stroke-miterlimit="10" stroke-linecap="round"/>
<path d="M52.0162 74.547H59.853L76.2122 86.6939C77.0938 87.3796 78.2693 86.6939 78.2693 85.6164V74.547H80.2285C88.3591 74.547 94.9224 67.9837 94.9224 59.8531V15.6735C94.9224 7.54288 88.3591 0.979614 80.2285 0.979614H15.6734C7.54276 0.979614 0.979492 7.54288 0.979492 15.6735V59.8531C0.979492 66.7102 5.68153 72.4898 11.9509 74.0572" stroke="#00A8F0" stroke-width="2.0386" stroke-miterlimit="10"/>
</g>
<defs>
<clipPath id="clip0">
<rect width="96" height="96" fill="white"/>
</clipPath>
</defs>
</svg>
