<svg width="97" height="98" viewBox="0 0 97 98" fill="none" xmlns="http://www.w3.org/2000/svg">
<path d="M54.3333 68.7877V87.0081C54.3333 92.004 50.321 96.0203 45.3302 96.0203H11.0794C5.99075 96.0203 1.97852 92.004 1.97852 87.0081V10.9917C1.97852 5.99582 5.99075 1.97949 10.9816 1.97949H45.2323C50.2232 1.97949 54.2354 5.99582 54.2354 10.9917V29.0162" stroke="#00A8F0" stroke-width="2" stroke-miterlimit="10"/>
<path d="M42.003 1.97949C42.003 5.01623 40.0458 7.36725 37.6972 7.36725H18.5167C16.1681 7.36725 14.2109 4.91827 14.2109 1.97949" stroke="#00A8F0" stroke-width="2" stroke-miterlimit="10"/>
<path fill-rule="evenodd" clip-rule="evenodd" d="M88.3884 69.3755L85.3547 72.4122C84.5719 73.1959 83.3976 73 82.5168 72.4122L76.3517 68.3959C74.5902 69.4734 72.633 70.2571 70.578 70.7469L69.1101 77.8979C68.9144 78.9755 68.2294 79.8571 67.1529 79.8571H62.8471C61.7706 79.8571 61.0856 78.9755 60.8899 77.8979L59.3242 70.7469C57.2691 70.2571 55.4098 69.3755 53.6483 68.3959L47.4832 72.4122C46.6025 73 45.4281 73.1959 44.6453 72.4122L41.6116 69.3755C40.8287 68.5918 41.0245 67.5143 41.6116 66.5347L45.6239 60.3632C44.6453 58.6 43.7645 56.7387 43.2752 54.6816L36.1315 53.2122C35.0551 53.0163 34.1743 52.3306 34.1743 51.253V46.9428C34.1743 45.8653 35.0551 45.1796 36.1315 44.9836L43.2752 43.4163C43.7645 41.3591 44.6453 39.4979 45.6239 37.7347L41.6116 31.5632C41.0245 30.6816 40.8287 29.5061 41.6116 28.7224L44.6453 25.6857C45.4281 24.902 46.5046 25.0979 47.4832 25.6857L53.6483 29.702C55.4098 28.7224 57.2691 27.9387 59.2263 27.351L60.7921 20.2C60.9878 19.1224 61.6728 18.1428 62.7492 18.1428H67.0551C68.1315 18.1428 68.8165 19.1224 69.0122 20.2L70.4801 27.351C72.5352 27.8408 74.3945 28.6245 76.156 29.702L82.3211 25.6857C83.2018 25.0979 84.3762 24.902 85.159 25.6857L88.1927 28.7224C88.9755 29.5061 88.7798 30.6816 88.1927 31.5632L84.1804 37.7347C85.2569 39.4979 86.0398 41.3591 86.5291 43.4163L93.6728 44.9836C94.7492 45.1796 95.63 45.8653 95.63 46.9428V51.253C95.63 52.3306 94.7492 53.0163 93.6728 53.2122L86.5291 54.6816C86.0398 56.7387 85.2569 58.6 84.1804 60.3632L88.1927 66.5347C88.9755 67.4163 89.1713 68.5918 88.3884 69.3755Z" stroke="#00A8F0" stroke-width="2" stroke-miterlimit="10"/>
<path fill-rule="evenodd" clip-rule="evenodd" d="M65.0002 55.4653C68.5232 55.4653 71.4589 52.5265 71.4589 49C71.4589 45.4734 68.5232 42.5347 65.0002 42.5347C61.4773 42.5347 58.5415 45.4734 58.5415 49C58.6394 52.5265 61.4773 55.4653 65.0002 55.4653Z" stroke="#FFCD41" stroke-width="2" stroke-miterlimit="10"/>
<path d="M8.92676 86.4204H13.8197" stroke="#00A8F0" stroke-width="2" stroke-miterlimit="10" stroke-linecap="round"/>
<path d="M20.0825 86.4204H25.0733" stroke="#00A8F0" stroke-width="2" stroke-miterlimit="10" stroke-linecap="round"/>
<path d="M31.2388 86.4204H36.2296" stroke="#00A8F0" stroke-width="2" stroke-miterlimit="10" stroke-linecap="round"/>
<path d="M42.3945 86.4204H47.3854" stroke="#00A8F0" stroke-width="2" stroke-miterlimit="10" stroke-linecap="round"/>
</svg>
