<svg width="98" height="98" viewBox="0 0 98 98" fill="none" xmlns="http://www.w3.org/2000/svg">
<path d="M43.2203 64.6735H1.97949V1.97961H96.0203V64.6735H77.604" stroke="#00A8F0" stroke-width="2" stroke-miterlimit="10"/>
<path d="M51.8408 60.7552C51.8408 58.5021 53.702 56.6409 55.9551 56.6409H56.4449C58.698 56.6409 60.5592 58.5021 60.5592 60.7552V67.5143" stroke="#00A8F0" stroke-width="2" stroke-miterlimit="10" stroke-linecap="round"/>
<path d="M60.5591 63.6939C60.5591 61.4408 62.4203 59.5796 64.6734 59.5796C67.2203 59.5796 69.2775 61.6367 69.2775 64.1837V69.6694" stroke="#00A8F0" stroke-width="2" stroke-miterlimit="10" stroke-linecap="round"/>
<path d="M69.2776 66.6327C69.2776 64.3796 71.1388 62.5184 73.3919 62.5184C75.9388 62.5184 77.996 64.5756 77.996 67.1225V71.6286V91.9062C77.996 94.1592 76.1348 96.0205 73.8817 96.0205H47.7266C46.3552 96.0205 45.0817 95.3347 44.298 94.1592L31.3674 74.5674C30.0939 72.7062 30.6817 70.1592 32.5429 68.8858C34.698 67.5143 37.5388 68.1021 38.9103 70.1592L42.9266 76.2327C43.0245 76.3307 43.2205 76.3307 43.2205 76.1347V41.849C43.2205 39.4 45.1796 37.5388 47.5307 37.5388C49.9796 37.5388 51.8409 39.498 51.8409 41.849V65.4572" stroke="#00A8F0" stroke-width="2" stroke-miterlimit="10" stroke-linecap="round"/>
<path d="M36.657 11.7755H11.7754V36.6571H36.657V11.7755Z" stroke="#FFCD41" stroke-width="2" stroke-miterlimit="10"/>
<path d="M48.2166 18.0449H84.4614" stroke="#00A8F0" stroke-width="2" stroke-miterlimit="10" stroke-linecap="round"/>
<path d="M48.2166 27.8408H70.7472" stroke="#00A8F0" stroke-width="2" stroke-miterlimit="10" stroke-linecap="round"/>
</svg>
